<svg width="945" height="113" viewBox="0 0 945 113" fill="none" xmlns="http://www.w3.org/2000/svg">
<path d="M50.1605 1.90909H72.9588V77.9744C72.9588 85.0057 71.3786 91.1136 68.218 96.2983C65.093 101.483 60.7429 105.478 55.1676 108.283C49.5923 111.089 43.1115 112.491 35.7251 112.491C29.1555 112.491 23.1896 111.337 17.8274 109.029C12.5007 106.685 8.27486 103.134 5.14986 98.3757C2.02486 93.5817 0.480114 87.5625 0.515625 80.3182H23.4737C23.5447 83.1946 24.1307 85.6626 25.2315 87.7223C26.3679 89.7464 27.9126 91.3089 29.8658 92.4098C31.8544 93.4751 34.1982 94.0078 36.897 94.0078C39.7379 94.0078 42.1349 93.4041 44.0881 92.1967C46.0767 90.9538 47.5859 89.1428 48.6158 86.7635C49.6456 84.3842 50.1605 81.4545 50.1605 77.9744V1.90909ZM159.411 1.90909H182.476V72.7543C182.476 80.7088 180.576 87.669 176.776 93.6349C173.012 99.6009 167.739 104.253 160.956 107.591C154.173 110.893 146.272 112.545 137.252 112.545C128.197 112.545 120.278 110.893 113.495 107.591C106.712 104.253 101.439 99.6009 97.6747 93.6349C93.9105 87.669 92.0284 80.7088 92.0284 72.7543V1.90909H115.093V70.7834C115.093 74.9382 115.999 78.6314 117.81 81.8629C119.656 85.0945 122.249 87.6335 125.587 89.4801C128.925 91.3267 132.813 92.25 137.252 92.25C141.727 92.25 145.615 91.3267 148.918 89.4801C152.256 87.6335 154.83 85.0945 156.641 81.8629C158.488 78.6314 159.411 74.9382 159.411 70.7834V1.90909ZM260.632 33.2834C260.206 28.9865 258.377 25.6484 255.145 23.2692C251.914 20.8899 247.528 19.7003 241.988 19.7003C238.224 19.7003 235.046 20.233 232.454 21.2983C229.861 22.3281 227.873 23.7663 226.488 25.6129C225.138 27.4595 224.464 29.5547 224.464 31.8984C224.393 33.8516 224.801 35.5561 225.689 37.0121C226.612 38.468 227.873 39.7287 229.471 40.794C231.069 41.8239 232.915 42.7294 235.01 43.5107C237.106 44.2564 239.343 44.8956 241.722 45.4283L251.523 47.772C256.282 48.8374 260.65 50.2578 264.627 52.0334C268.604 53.8089 272.049 55.9929 274.961 58.5852C277.873 61.1776 280.128 64.2315 281.726 67.7472C283.359 71.2628 284.194 75.2933 284.229 79.8388C284.194 86.5149 282.489 92.3033 279.116 97.2038C275.778 102.069 270.948 105.851 264.627 108.55C258.341 111.213 250.76 112.545 241.882 112.545C233.075 112.545 225.405 111.195 218.871 108.496C212.372 105.798 207.294 101.803 203.636 96.5114C200.014 91.1847 198.114 84.5973 197.937 76.7493H220.256C220.504 80.407 221.552 83.4609 223.398 85.9112C225.28 88.326 227.784 90.1548 230.909 91.3977C234.069 92.6051 237.638 93.2088 241.616 93.2088C245.522 93.2088 248.913 92.6406 251.79 91.5043C254.702 90.3679 256.956 88.7876 258.555 86.7635C260.153 84.7393 260.952 82.4134 260.952 79.7855C260.952 77.3352 260.224 75.2756 258.768 73.6065C257.347 71.9375 255.252 70.517 252.482 69.3452C249.748 68.1733 246.392 67.108 242.415 66.1491L230.536 63.1662C221.339 60.929 214.077 57.4311 208.75 52.6726C203.423 47.9141 200.778 41.5043 200.813 33.4432C200.778 26.8381 202.535 21.0675 206.086 16.1314C209.673 11.1953 214.591 7.34233 220.841 4.57244C227.091 1.80255 234.194 0.41761 242.148 0.41761C250.245 0.41761 257.312 1.80255 263.349 4.57244C269.421 7.34233 274.144 11.1953 277.518 16.1314C280.891 21.0675 282.631 26.7848 282.738 33.2834H260.632ZM295.588 20.9254V1.90909H385.184V20.9254H351.785V111H328.987V20.9254H295.588ZM434.655 111V1.90909H457.72V91.9837H504.488V111H434.655ZM542.827 1.90909V111H519.763V1.90909H542.827ZM620.983 33.2834C620.557 28.9865 618.729 25.6484 615.497 23.2692C612.265 20.8899 607.88 19.7003 602.34 19.7003C598.576 19.7003 595.398 20.233 592.805 21.2983C590.213 22.3281 588.224 23.7663 586.839 25.6129C585.49 27.4595 584.815 29.5547 584.815 31.8984C584.744 33.8516 585.153 35.5561 586.04 37.0121C586.964 38.468 588.224 39.7287 589.822 40.794C591.42 41.8239 593.267 42.7294 595.362 43.5107C597.457 44.2564 599.694 44.8956 602.074 45.4283L611.875 47.772C616.633 48.8374 621.001 50.2578 624.979 52.0334C628.956 53.8089 632.4 55.9929 635.312 58.5852C638.224 61.1776 640.479 64.2315 642.077 67.7472C643.711 71.2628 644.545 75.2933 644.581 79.8388C644.545 86.5149 642.841 92.3033 639.467 97.2038C636.129 102.069 631.3 105.851 624.979 108.55C618.693 111.213 611.111 112.545 602.233 112.545C593.427 112.545 585.756 111.195 579.222 108.496C572.724 105.798 567.645 101.803 563.988 96.5114C560.366 91.1847 558.466 84.5973 558.288 76.7493H580.607C580.856 80.407 581.903 83.4609 583.75 85.9112C585.632 88.326 588.135 90.1548 591.26 91.3977C594.421 92.6051 597.99 93.2088 601.967 93.2088C605.873 93.2088 609.265 92.6406 612.141 91.5043C615.053 90.3679 617.308 88.7876 618.906 86.7635C620.504 84.7393 621.303 82.4134 621.303 79.7855C621.303 77.3352 620.575 75.2756 619.119 73.6065C617.699 71.9375 615.604 70.517 612.834 69.3452C610.099 68.1733 606.743 67.108 602.766 66.1491L590.888 63.1662C581.69 60.929 574.428 57.4311 569.101 52.6726C563.775 47.9141 561.129 41.5043 561.165 33.4432C561.129 26.8381 562.887 21.0675 566.438 16.1314C570.025 11.1953 574.943 7.34233 581.193 4.57244C587.443 1.80255 594.545 0.41761 602.5 0.41761C610.596 0.41761 617.663 1.80255 623.7 4.57244C629.773 7.34233 634.496 11.1953 637.869 16.1314C641.243 21.0675 642.983 26.7848 643.089 33.2834H620.983ZM655.94 20.9254V1.90909H745.535V20.9254H712.137V111H689.338V20.9254H655.94ZM760.29 111V1.90909H833.799V20.9254H783.355V46.9197H830.017V65.9361H783.355V91.9837H834.012V111H760.29ZM890.808 111H852.136V1.90909H891.127C902.1 1.90909 911.546 4.09304 919.465 8.46094C927.384 12.7933 933.475 19.0256 937.736 27.1577C942.033 35.2898 944.181 45.0199 944.181 56.348C944.181 67.7116 942.033 77.4773 937.736 85.6449C933.475 93.8125 927.349 100.08 919.359 104.448C911.404 108.816 901.887 111 890.808 111ZM875.2 91.2379H889.849C896.667 91.2379 902.402 90.0305 907.054 87.6158C911.742 85.1655 915.257 81.3835 917.601 76.2699C919.98 71.1207 921.17 64.4801 921.17 56.348C921.17 48.2869 919.98 41.6996 917.601 36.5859C915.257 31.4723 911.759 27.7081 907.107 25.2933C902.455 22.8786 896.72 21.6712 889.902 21.6712H875.2V91.2379Z" fill="black"/>
</svg>
